<svg xmlns="http://www.w3.org/2000/svg" xmlns:xlink="http://www.w3.org/1999/xlink" style="margin:auto;background:rgba(241, 242, 243, 0);display:block;z-index:1;position:relative" width="50" height="50" preserveAspectRatio="xMidYMid" viewBox="0 0 50 50">
<g transform="translate(25,25) scale(1,1) translate(-25,-25)"><path id="path0" d="M 60.90847276978211 0.43257134136840847
c 0 37.18575079450723 -9.098641151847511 10.681013526081863 -19.779654677929376 10.681013526081863
S 21.349163413923353 37.61832213587564 21.349163413923353 0.43257134136840847
s 9.098641151847511 -10.681013526081863 19.779654677929376 -10.681013526081863
S 60.90847276978211 -36.75317945313882 60.90847276978211 0.43257134136840847
z" fill="none" stroke="none"></path>
<circle cx="0" cy="0" r="0.2631125238242773" fill="#fefefe">
  <animateMotion begin="-11.23295631598236s" dur="20s" repeatCount="indefinite">
    <mpath xlink:href="#path0"></mpath>
  </animateMotion>
</circle><path id="path1" d="M 39.84309964628037 43.26291178104321
c 0 33.252228365611835 -8.136183536266726 9.551171977356592 -17.687355513623316 9.551171977356592
S 4.468388619033739 76.51514014665504 4.468388619033739 43.26291178104321
s 8.136183536266726 -9.551171977356592 17.687355513623316 -9.551171977356592
S 39.84309964628037 10.010683415431373 39.84309964628037 43.26291178104321
z" fill="none" stroke="none"></path>
<circle cx="0" cy="0" r="0.42704182221800574" fill="#fefefe">
  <animateMotion begin="-9.080352431211733s" dur="20s" repeatCount="indefinite">
    <mpath xlink:href="#path1"></mpath>
  </animateMotion>
</circle><path id="path2" d="M 46.61444119246957 5.742152481423967
c 0 21.975452435082726 -5.376972404328752 6.312098039864187 -11.68907044419294 6.312098039864187
S 23.236300304083695 27.717604916506694 23.236300304083695 5.742152481423967
s 5.376972404328752 -6.312098039864187 11.68907044419294 -6.312098039864187
S 46.61444119246957 -16.233299953658758 46.61444119246957 5.742152481423967
z" fill="none" stroke="none"></path>
<circle cx="0" cy="0" r="0.41974708202536143" fill="#b2beff">
  <animateMotion begin="-1.7156928584686826s" dur="20s" repeatCount="indefinite">
    <mpath xlink:href="#path2"></mpath>
  </animateMotion>
</circle><path id="path3" d="M 50.80788124183822 15.596329109478566
c 0 34.65086967683549 -8.47840428262996 9.952909375261259 -18.43131365789122 9.952909375261259
S 13.94525392605578 50.24719878631406 13.94525392605578 15.596329109478566
s 8.47840428262996 -9.952909375261259 18.43131365789122 -9.952909375261259
S 50.80788124183822 -19.054540567356923 50.80788124183822 15.596329109478566
z" fill="none" stroke="none"></path>
<circle cx="0" cy="0" r="0.28645786029526643" fill="#fefefe">
  <animateMotion begin="-19.211588172179056s" dur="20s" repeatCount="indefinite">
    <mpath xlink:href="#path3"></mpath>
  </animateMotion>
</circle><path id="path4" d="M 34.266902580672486 2.1743189273285837
c 0 23.41199811841819 -5.728467624719344 6.72472286380097 -12.453190488520313 6.72472286380097
S 9.36052160363186 25.586317045746775 9.36052160363186 2.1743189273285837
s 5.728467624719344 -6.72472286380097 12.453190488520313 -6.72472286380097
S 34.266902580672486 -21.237679191089605 34.266902580672486 2.1743189273285837
z" fill="none" stroke="none"></path>
<circle cx="0" cy="0" r="0.3829260758142158" fill="#fefefe">
  <animateMotion begin="-19.520672856719102s" dur="20s" repeatCount="indefinite">
    <mpath xlink:href="#path4"></mpath>
  </animateMotion>
</circle><path id="path5" d="M 61.25340560827114 14.472423845171456
c 0 31.009965862134628 -7.587544838607409 8.907117854017393 -16.4946626926248 8.907117854017393
S 28.264080223021537 45.48238970730608 28.264080223021537 14.472423845171456
s 7.587544838607409 -8.907117854017393 16.4946626926248 -8.907117854017393
S 61.25340560827114 -16.537542016963172 61.25340560827114 14.472423845171456
z" fill="none" stroke="none"></path>
<circle cx="0" cy="0" r="0.40170407940900804" fill="#fefefe">
  <animateMotion begin="-17.113000051372165s" dur="20s" repeatCount="indefinite">
    <mpath xlink:href="#path5"></mpath>
  </animateMotion>
</circle><path id="path6" d="M 26.997822386240756 44.1118810324575
c 0 31.15977752517892 -7.624200883820373 8.950148863615222 -16.574349747435594 8.950148863615222
S -6.150877108630434 75.27165855763641 -6.150877108630434 44.1118810324575
s 7.624200883820373 -8.950148863615222 16.574349747435594 -8.950148863615222
S 26.997822386240756 12.952103507278576 26.997822386240756 44.1118810324575
z" fill="none" stroke="none"></path>
<circle cx="0" cy="0" r="0.4024115416910546" fill="#fefefe">
  <animateMotion begin="-8.459390952130605s" dur="20s" repeatCount="indefinite">
    <mpath xlink:href="#path6"></mpath>
  </animateMotion>
</circle><path id="path7" d="M 24.02589994716022 46.916245897891656
c 0 23.656453040835974 -5.78828106318327 6.7949386393890565 -12.583219702572325 6.7949386393890565
S -1.1405394579844312 70.57269893872763 -1.1405394579844312 46.916245897891656
s 5.78828106318327 -6.7949386393890565 12.583219702572325 -6.7949386393890565
S 24.02589994716022 23.259792857055682 24.02589994716022 46.916245897891656
z" fill="none" stroke="none"></path>
<circle cx="0" cy="0" r="0.49469509339000306" fill="#fefefe">
  <animateMotion begin="-9.170874936603518s" dur="20s" repeatCount="indefinite">
    <mpath xlink:href="#path7"></mpath>
  </animateMotion>
</circle><path id="path8" d="M 25.740445467532147 3.127739415988513
c 0 22.580432062208732 -5.5249993343702215 6.485868783825913 -12.010868118196134 6.485868783825913
S 1.7187092311398775 25.708171478197244 1.7187092311398775 3.127739415988513
s 5.5249993343702215 -6.485868783825913 12.010868118196134 -6.485868783825913
S 25.740445467532147 -19.45269264622022 25.740445467532147 3.127739415988513
z" fill="none" stroke="none"></path>
<circle cx="0" cy="0" r="0.32328121380252606" fill="#b2beff">
  <animateMotion begin="-18.707381826330092s" dur="20s" repeatCount="indefinite">
    <mpath xlink:href="#path8"></mpath>
  </animateMotion>
</circle><path id="path9" d="M 45.286325670050374 16.61025863186079
c 0 23.93320796392841 -5.855997693301632 6.874432074745395 -12.730429768047028 6.874432074745395
S 19.825466133956315 40.5434665957892 19.825466133956315 16.61025863186079
s 5.855997693301632 -6.874432074745395 12.730429768047028 -6.874432074745395
S 45.286325670050374 -7.322949332067619 45.286325670050374 16.61025863186079
z" fill="none" stroke="none"></path>
<circle cx="0" cy="0" r="0.41739807082318225" fill="#b2beff">
  <animateMotion begin="-11.149920204153947s" dur="20s" repeatCount="indefinite">
    <mpath xlink:href="#path9"></mpath>
  </animateMotion>
</circle><path id="path10" d="M 25.076008874555782 48.925119681720886
c 0 21.753068730891968 -5.32255937032463 6.248221869511522 -11.570781239836151 6.248221869511522
S 1.9344463948834782 70.67818841261285 1.9344463948834782 48.925119681720886
s 5.32255937032463 -6.248221869511522 11.570781239836151 -6.248221869511522
S 25.076008874555782 27.17205095082892 25.076008874555782 48.925119681720886
z" fill="none" stroke="none"></path>
<circle cx="0" cy="0" r="0.26979580208653664" fill="#566fff">
  <animateMotion begin="-13.624594371695874s" dur="20s" repeatCount="indefinite">
    <mpath xlink:href="#path10"></mpath>
  </animateMotion>
</circle><path id="path11" d="M 16.95569104397447 2.290237470117023
c 0 23.496135541698425 -5.749054441053869 6.74888999601976 -12.49794443707363 6.74888999601976
S -8.040197830172788 25.78637301181545 -8.040197830172788 2.290237470117023
s 5.749054441053869 -6.74888999601976 12.49794443707363 -6.74888999601976
S 16.95569104397447 -21.2058980715814 16.95569104397447 2.290237470117023
z" fill="none" stroke="none"></path>
<circle cx="0" cy="0" r="0.48042808602922593" fill="#b2beff">
  <animateMotion begin="-6.394172426427076s" dur="20s" repeatCount="indefinite">
    <mpath xlink:href="#path11"></mpath>
  </animateMotion>
</circle><path id="path12" d="M 22.956500281874202 14.669746459025102
c 0 31.700507785062324 -7.75650722400461 9.10546500209237 -16.86197222609698 9.10546500209237
S -10.76744417031976 46.37025424408743 -10.76744417031976 14.669746459025102
s 7.75650722400461 -9.10546500209237 16.86197222609698 -9.10546500209237
S 22.956500281874202 -17.030761326037222 22.956500281874202 14.669746459025102
z" fill="none" stroke="none"></path>
<circle cx="0" cy="0" r="0.27688035012753576" fill="#b2beff">
  <animateMotion begin="-12.239663081135337s" dur="20s" repeatCount="indefinite">
    <mpath xlink:href="#path12"></mpath>
  </animateMotion>
</circle><path id="path13" d="M 39.099053560403945 34.24265620324137
c 0 32.87956947950412 -8.04500104285739 9.444131659006501 -17.48913270186389 9.444131659006501
S 4.120788156676163 67.1222256827455 4.120788156676163 34.24265620324137
s 8.04500104285739 -9.444131659006501 17.48913270186389 -9.444131659006501
S 39.099053560403945 1.363086723737247 39.099053560403945 34.24265620324137
z" fill="none" stroke="none"></path>
<circle cx="0" cy="0" r="0.42493634453560514" fill="#b2beff">
  <animateMotion begin="-13.915523108361176s" dur="20s" repeatCount="indefinite">
    <mpath xlink:href="#path13"></mpath>
  </animateMotion>
</circle><path id="path14" d="M 24.935329378214472 2.483894556374993
c 0 23.84545251512981 -5.834525615404102 6.849225722430903 -12.683751337835005 6.849225722430903
S -0.4321732974555381 26.329347071504802 -0.4321732974555381 2.483894556374993
s 5.834525615404102 -6.849225722430903 12.683751337835005 -6.849225722430903
S 24.935329378214472 -21.36155795875482 24.935329378214472 2.483894556374993
z" fill="none" stroke="none"></path>
<circle cx="0" cy="0" r="0.3184842519986259" fill="#fefefe">
  <animateMotion begin="-1.4099911305041646s" dur="20s" repeatCount="indefinite">
    <mpath xlink:href="#path14"></mpath>
  </animateMotion>
</circle><path id="path15" d="M 18.403172619491986 24.43702484047822
c 0 33.27001455837684 -8.140535477049653 9.556280777406116 -17.69681625445577 9.556280777406116
S -16.99045988941955 57.70703939885506 -16.99045988941955 24.43702484047822
s 8.140535477049653 -9.556280777406116 17.69681625445577 -9.556280777406116
S 18.403172619491986 -8.832989717898624 18.403172619491986 24.43702484047822
z" fill="none" stroke="none"></path>
<circle cx="0" cy="0" r="0.2904157024143532" fill="#fefefe">
  <animateMotion begin="-17.454949918852193s" dur="20s" repeatCount="indefinite">
    <mpath xlink:href="#path15"></mpath>
  </animateMotion>
</circle><path id="path16" d="M 16.787423885745948 18.078195143213346
c 0 27.73382355766861 -6.785935551344447 7.966098255926091 -14.752033807270537 7.966098255926091
S -12.716643728795127 45.81201870088196 -12.716643728795127 18.078195143213346
s 6.785935551344447 -7.966098255926091 14.752033807270537 -7.966098255926091
S 16.787423885745948 -9.655628414455265 16.787423885745948 18.078195143213346
z" fill="none" stroke="none"></path>
<circle cx="0" cy="0" r="0.3830059514810437" fill="#b2beff">
  <animateMotion begin="-9.987876818546116s" dur="20s" repeatCount="indefinite">
    <mpath xlink:href="#path16"></mpath>
  </animateMotion>
</circle><path id="path17" d="M 42.8119456739719 19.533074939838823
c 0 30.971321762554112 -7.578089367433452 8.896017953074054 -16.474107320507507 8.896017953074054
S 9.863731032956885 50.50439670239294 9.863731032956885 19.533074939838823
s 7.578089367433452 -8.896017953074054 16.474107320507507 -8.896017953074054
S 42.8119456739719 -11.43824682271529 42.8119456739719 19.533074939838823
z" fill="none" stroke="none"></path>
<circle cx="0" cy="0" r="0.32937648322228147" fill="#fefefe">
  <animateMotion begin="-1.599397521162782s" dur="20s" repeatCount="indefinite">
    <mpath xlink:href="#path17"></mpath>
  </animateMotion>
</circle><path id="path18" d="M 48.5431468595369 36.55919521789873
c 0 28.84781415970856 -7.058507719928689 8.286074279916289 -15.344581999844976 8.286074279916289
S 17.853982859846944 65.4070093776073 17.853982859846944 36.55919521789873
s 7.058507719928689 -8.286074279916289 15.344581999844976 -8.286074279916289
S 48.5431468595369 7.711381058190174 48.5431468595369 36.55919521789873
z" fill="none" stroke="none"></path>
<circle cx="0" cy="0" r="0.34996782740707477" fill="#fefefe">
  <animateMotion begin="-13.82897056252206s" dur="20s" repeatCount="indefinite">
    <mpath xlink:href="#path18"></mpath>
  </animateMotion>
</circle><path id="path19" d="M 59.669810787938836 4.667018409343278
c 0 19.38732432952165 -4.743707016797851 5.568699541458347 -10.312406558256198 5.568699541458347
S 39.04499767142644 24.05434273886493 39.04499767142644 4.667018409343278
s 4.743707016797851 -5.568699541458347 10.312406558256198 -5.568699541458347
S 59.669810787938836 -14.720305920178372 59.669810787938836 4.667018409343278
z" fill="none" stroke="none"></path>
<circle cx="0" cy="0" r="0.38228518928669525" fill="#566fff">
  <animateMotion begin="-11.043782086673328s" dur="20s" repeatCount="indefinite">
    <mpath xlink:href="#path19"></mpath>
  </animateMotion>
</circle><path id="path20" d="M 30.361776179851233 13.07818603193139
c 0 32.43009736096235 -7.935023822363127 9.315027965382804 -17.25005178774593 9.315027965382804
S -4.138327395640632 45.50828339289374 -4.138327395640632 13.07818603193139
s 7.935023822363127 -9.315027965382804 17.25005178774593 -9.315027965382804
S 30.361776179851233 -19.351911329030962 30.361776179851233 13.07818603193139
z" fill="none" stroke="none"></path>
<circle cx="0" cy="0" r="0.46627368936745806" fill="#fefefe">
  <animateMotion begin="-19.95189427715125s" dur="20s" repeatCount="indefinite">
    <mpath xlink:href="#path20"></mpath>
  </animateMotion>
</circle><path id="path21" d="M 35.28599188251117 46.543696200313185
c 0 27.399961817576866 -6.704245976641147 7.870201798665695 -14.574447775306842 7.870201798665695
S 6.137096331897483 73.94365801789004 6.137096331897483 46.543696200313185
s 6.704245976641147 -7.870201798665695 14.574447775306842 -7.870201798665695
S 35.28599188251117 19.14373438273632 35.28599188251117 46.543696200313185
z" fill="none" stroke="none"></path>
<circle cx="0" cy="0" r="0.2681458839017929" fill="#566fff">
  <animateMotion begin="-12.061617642839328s" dur="20s" repeatCount="indefinite">
    <mpath xlink:href="#path21"></mpath>
  </animateMotion>
</circle><path id="path22" d="M 49.53996891716623 9.47785547706538
c 0 30.223546913918337 -7.395123181065125 8.6812315603808 -16.076354741445925 8.6812315603808
S 17.387259434274377 39.701402390983716 17.387259434274377 9.47785547706538
s 7.395123181065125 -8.6812315603808 16.076354741445925 -8.6812315603808
S 49.53996891716623 -20.745691436852958 49.53996891716623 9.47785547706538
z" fill="none" stroke="none"></path>
<circle cx="0" cy="0" r="0.31302577832960965" fill="#b2beff">
  <animateMotion begin="-10.435974616051528s" dur="20s" repeatCount="indefinite">
    <mpath xlink:href="#path22"></mpath>
  </animateMotion>
</circle><path id="path23" d="M 26.300790668473205 0.43316038858483935
c 0 34.135314206064095 -8.352257731271001 9.804824293231176 -18.157082024502177 9.804824293231176
S -10.01337338053115 34.56847459464893 -10.01337338053115 0.43316038858483935
s 8.352257731271001 -9.804824293231176 18.157082024502177 -9.804824293231176
S 26.300790668473205 -33.70215381747926 26.300790668473205 0.43316038858483935
z" fill="none" stroke="none"></path>
<circle cx="0" cy="0" r="0.3056997787454584" fill="#fefefe">
  <animateMotion begin="-16.365137039135327s" dur="20s" repeatCount="indefinite">
    <mpath xlink:href="#path23"></mpath>
  </animateMotion>
</circle><path id="path24" d="M 18.34606334949542 30.65372534936974
c 0 25.291631316837403 -6.188377875396386 7.264617505900105 -13.45299538129649 7.264617505900105
S -8.559927413097562 55.94535666620715 -8.559927413097562 30.65372534936974
s 6.188377875396386 -7.264617505900105 13.45299538129649 -7.264617505900105
S 18.34606334949542 5.362094032532337 18.34606334949542 30.65372534936974
z" fill="none" stroke="none"></path>
<circle cx="0" cy="0" r="0.453862677788956" fill="#566fff">
  <animateMotion begin="-9.80180016877291s" dur="20s" repeatCount="indefinite">
    <mpath xlink:href="#path24"></mpath>
  </animateMotion>
</circle><path id="path25" d="M 25.552868042698627 48.989818370108374
c 0 32.126210302602004 -7.860668478296234 9.227741257130363 -17.0884097354266 9.227741257130363
S -8.62395142815457 81.11602867271037 -8.62395142815457 48.989818370108374
s 7.860668478296234 -9.227741257130363 17.0884097354266 -9.227741257130363
S 25.552868042698627 16.86360806750637 25.552868042698627 48.989818370108374
z" fill="none" stroke="none"></path>
<circle cx="0" cy="0" r="0.29854328127490726" fill="#566fff">
  <animateMotion begin="-11.295824707818118s" dur="20s" repeatCount="indefinite">
    <mpath xlink:href="#path25"></mpath>
  </animateMotion>
</circle><path id="path26" d="M 31.77767813174567 8.58232417343398
c 0 22.65788651464686 -5.543950955711466 6.50811633931346 -12.052067295024926 6.50811633931346
S 7.6735435416958175 31.240210688080843 7.6735435416958175 8.58232417343398
s 5.543950955711466 -6.50811633931346 12.052067295024926 -6.50811633931346
S 31.77767813174567 -14.075562341212882 31.77767813174567 8.58232417343398
z" fill="none" stroke="none"></path>
<circle cx="0" cy="0" r="0.2887611306004458" fill="#fefefe">
  <animateMotion begin="-7.822368540513236s" dur="20s" repeatCount="indefinite">
    <mpath xlink:href="#path26"></mpath>
  </animateMotion>
</circle><path id="path27" d="M 61.953743374989884 1.9181193278917976
c 0 29.183675437093108 -7.140686543118526 8.382545072356532 -15.523231615475057 8.382545072356532
S 30.907280144039774 31.101794764984906 30.907280144039774 1.9181193278917976
s 7.140686543118526 -8.382545072356532 15.523231615475057 -8.382545072356532
S 61.953743374989884 -27.26555610920131 61.953743374989884 1.9181193278917976
z" fill="none" stroke="none"></path>
<circle cx="0" cy="0" r="0.3740315673870493" fill="#b2beff">
  <animateMotion begin="-7.317156147118271s" dur="20s" repeatCount="indefinite">
    <mpath xlink:href="#path27"></mpath>
  </animateMotion>
</circle><path id="path28" d="M 35.91100365471627 0.43123686348484047
c 0 36.398695541918514 -8.906063802809848 10.454944464168085 -19.361008266977933 10.454944464168085
S -2.8110128792395983 36.829932405403355 -2.8110128792395983 0.43123686348484047
s 8.906063802809848 -10.454944464168085 19.361008266977933 -10.454944464168085
S 35.91100365471627 -35.96745867843367 35.91100365471627 0.43123686348484047
z" fill="none" stroke="none"></path>
<circle cx="0" cy="0" r="0.30794781762762313" fill="#566fff">
  <animateMotion begin="-1.349690610927019s" dur="20s" repeatCount="indefinite">
    <mpath xlink:href="#path28"></mpath>
  </animateMotion>
</circle><path id="path29" d="M 27.092613757337737 39.50143990509423
c 0 36.75051458481945 -8.99214718564731 10.555998870107715 -19.548146055755026 10.555998870107715
S -12.003678354172315 76.25195448991369 -12.003678354172315 39.50143990509423
s 8.99214718564731 -10.555998870107715 19.548146055755026 -10.555998870107715
S 27.092613757337737 2.7509253202747814 27.092613757337737 39.50143990509423
z" fill="none" stroke="none"></path>
<circle cx="0" cy="0" r="0.2875964293557479" fill="#b2beff">
  <animateMotion begin="-8.885244421605876s" dur="20s" repeatCount="indefinite">
    <mpath xlink:href="#path29"></mpath>
  </animateMotion>
</circle><path id="path30" d="M 24.533932548284703 49.582492165963224
c 0 34.304976130602704 -8.393770755360235 9.853556973683755 -18.247327729043988 9.853556973683755
S -11.960722909803273 83.88746829656593 -11.960722909803273 49.582492165963224
s 8.393770755360235 -9.853556973683755 18.247327729043988 -9.853556973683755
S 24.533932548284703 15.27751603536052 24.533932548284703 49.582492165963224
z" fill="none" stroke="none"></path>
<circle cx="0" cy="0" r="0.3693459259448143" fill="#b2beff">
  <animateMotion begin="-19.0465022875336s" dur="20s" repeatCount="indefinite">
    <mpath xlink:href="#path30"></mpath>
  </animateMotion>
</circle><path id="path31" d="M 53.51371847097228 2.1026706251865797
c 0 21.640169383495582 -5.294935061919131 6.215793333557242 -11.510728395476374 6.215793333557242
S 30.492261680019528 23.742840008682162 30.492261680019528 2.1026706251865797
s 5.294935061919131 -6.215793333557242 11.510728395476374 -6.215793333557242
S 53.51371847097228 -19.537498758309003 53.51371847097228 2.1026706251865797
z" fill="none" stroke="none"></path>
<circle cx="0" cy="0" r="0.25778141943212834" fill="#fefefe">
  <animateMotion begin="-10.68262181018186s" dur="20s" repeatCount="indefinite">
    <mpath xlink:href="#path31"></mpath>
  </animateMotion>
</circle><path id="path32" d="M 28.8387815652833 23.11384624176726
c 0 30.21541145984588 -7.393132591238885 8.678894781019562 -16.072027372258447 8.678894781019562
S -3.3052731792335965 53.32925770161314 -3.3052731792335965 23.11384624176726
s 7.393132591238885 -8.678894781019562 16.072027372258447 -8.678894781019562
S 28.8387815652833 -7.101565218078619 28.8387815652833 23.11384624176726
z" fill="none" stroke="none"></path>
<circle cx="0" cy="0" r="0.4034271167122827" fill="#b2beff">
  <animateMotion begin="-11.263121723440403s" dur="20s" repeatCount="indefinite">
    <mpath xlink:href="#path32"></mpath>
  </animateMotion>
</circle><path id="path33" d="M 59.732381624438155 26.022025139353286
c 0 34.15888329630052 -8.35802463632885 9.811594138299085 -18.169618774627935 9.811594138299085
S 23.393144075182285 60.180908435653805 23.393144075182285 26.022025139353286
s 8.35802463632885 -9.811594138299085 18.169618774627935 -9.811594138299085
S 59.732381624438155 -8.136858156947238 59.732381624438155 26.022025139353286
z" fill="none" stroke="none"></path>
<circle cx="0" cy="0" r="0.48038374713624593" fill="#566fff">
  <animateMotion begin="-2.1018249706243486s" dur="20s" repeatCount="indefinite">
    <mpath xlink:href="#path33"></mpath>
  </animateMotion>
</circle><path id="path34" d="M 50.59870945738892 47.17587491816157
c 0 27.079809668936058 -6.625910876441801 7.778243202779507 -14.404154079221307 7.778243202779507
S 21.790401298946307 74.25568458709762 21.790401298946307 47.17587491816157
s 6.625910876441801 -7.778243202779507 14.404154079221307 -7.778243202779507
S 50.59870945738892 20.09606524922551 50.59870945738892 47.17587491816157
z" fill="none" stroke="none"></path>
<circle cx="0" cy="0" r="0.4506651209049043" fill="#b2beff">
  <animateMotion begin="-14.549457914916882s" dur="20s" repeatCount="indefinite">
    <mpath xlink:href="#path34"></mpath>
  </animateMotion>
</circle><path id="path35" d="M 27.752246066160065 39.098786211792614
c 0 22.184204954268285 -5.428050148384793 6.372058869843018 -11.800109018227811 6.372058869843018
S 4.152028029704443 61.282991166060896 4.152028029704443 39.098786211792614
s 5.428050148384793 -6.372058869843018 11.800109018227811 -6.372058869843018
S 27.752246066160065 16.91458125752433 27.752246066160065 39.098786211792614
z" fill="none" stroke="none"></path>
<circle cx="0" cy="0" r="0.4885191164005917" fill="#b2beff">
  <animateMotion begin="-0.7014860366093645s" dur="20s" repeatCount="indefinite">
    <mpath xlink:href="#path35"></mpath>
  </animateMotion>
</circle><path id="path36" d="M 37.95252879278534 47.34407682726631
c 0 20.715731657973816 -5.068742852482954 5.950263348566947 -11.019006201049901 5.950263348566947
S 15.914516390685534 68.05980848524013 15.914516390685534 47.34407682726631
s 5.068742852482954 -5.950263348566947 11.019006201049901 -5.950263348566947
S 37.95252879278534 26.628345169292498 37.95252879278534 47.34407682726631
z" fill="none" stroke="none"></path>
<circle cx="0" cy="0" r="0.341062030044506" fill="#b2beff">
  <animateMotion begin="-14.000901680143286s" dur="20s" repeatCount="indefinite">
    <mpath xlink:href="#path36"></mpath>
  </animateMotion>
</circle><path id="path37" d="M 33.297860348586276 44.68695596725815
c 0 22.24330479605635 -5.442510747971234 6.389034356314059 -11.831545104285293 6.389034356314059
S 9.63477014001569 66.9302607633145 9.63477014001569 44.68695596725815
s 5.442510747971234 -6.389034356314059 11.831545104285293 -6.389034356314059
S 33.297860348586276 22.4436511712018 33.297860348586276 44.68695596725815
z" fill="none" stroke="none"></path>
<circle cx="0" cy="0" r="0.2672329836015948" fill="#b2beff">
  <animateMotion begin="-11.61513355533569s" dur="20s" repeatCount="indefinite">
    <mpath xlink:href="#path37"></mpath>
  </animateMotion>
</circle><path id="path38" d="M 43.10002392784938 38.1760617978307
c 0 31.139006991930902 -7.619118732068198 8.944182859384409 -16.563301591452607 8.944182859384409
S 9.97342074494416 69.3150687897616 9.97342074494416 38.1760617978307
s 7.619118732068198 -8.944182859384409 16.563301591452607 -8.944182859384409
S 43.10002392784938 7.037054805899796 43.10002392784938 38.1760617978307
z" fill="none" stroke="none"></path>
<circle cx="0" cy="0" r="0.2942137380421677" fill="#b2beff">
  <animateMotion begin="-9.707191586107662s" dur="20s" repeatCount="indefinite">
    <mpath xlink:href="#path38"></mpath>
  </animateMotion>
</circle><path id="path39" d="M 43.05596746705095 48.685118313553005
c 0 24.02765588129947 -5.879107290105189 6.901560731862614 -12.780668021967802 6.901560731862614
S 17.49463142311534 72.71277419485247 17.49463142311534 48.685118313553005
s 5.879107290105189 -6.901560731862614 12.780668021967802 -6.901560731862614
S 43.05596746705095 24.657462432253535 43.05596746705095 48.685118313553005
z" fill="none" stroke="none"></path>
<circle cx="0" cy="0" r="0.36164544178241115" fill="#b2beff">
  <animateMotion begin="-18.391469819572666s" dur="20s" repeatCount="indefinite">
    <mpath xlink:href="#path39"></mpath>
  </animateMotion>
</circle><path id="path40" d="M 40.267024679872065 24.923400506224077
c 0 24.878647909391933 -6.0873287437873875 7.145994612272151 -13.23332335605954 7.145994612272151
S 13.80037796775299 49.802048415616014 13.80037796775299 24.923400506224077
s 6.0873287437873875 -7.145994612272151 13.23332335605954 -7.145994612272151
S 40.267024679872065 0.04475259683214361 40.267024679872065 24.923400506224077
z" fill="none" stroke="none"></path>
<circle cx="0" cy="0" r="0.3798974166485423" fill="#566fff">
  <animateMotion begin="-8.374704404084783s" dur="20s" repeatCount="indefinite">
    <mpath xlink:href="#path40"></mpath>
  </animateMotion>
</circle><path id="path41" d="M 43.83731566511539 26.273818933003724
c 0 24.552671719941042 -6.007568612325999 7.052363153600086 -13.059931765926084 7.052363153600086
S 17.717452133263222 50.82649065294477 17.717452133263222 26.273818933003724
s 6.007568612325999 -7.052363153600086 13.059931765926084 -7.052363153600086
S 43.83731566511539 1.7211472130626824 43.83731566511539 26.273818933003724
z" fill="none" stroke="none"></path>
<circle cx="0" cy="0" r="0.29693151876790236" fill="#566fff">
  <animateMotion begin="-10.315615231957768s" dur="20s" repeatCount="indefinite">
    <mpath xlink:href="#path41"></mpath>
  </animateMotion>
</circle><path id="path42" d="M 54.15161931501781 6.279700414531368
c 0 31.463428505496527 -7.698498464110852 9.037367762217087 -16.73586622632794 9.037367762217087
S 20.67988686236193 37.74312892002789 20.67988686236193 6.279700414531368
s 7.698498464110852 -9.037367762217087 16.73586622632794 -9.037367762217087
S 54.15161931501781 -25.183728090965158 54.15161931501781 6.279700414531368
z" fill="none" stroke="none"></path>
<circle cx="0" cy="0" r="0.4195332497700261" fill="#fefefe">
  <animateMotion begin="-16.859059426091907s" dur="20s" repeatCount="indefinite">
    <mpath xlink:href="#path42"></mpath>
  </animateMotion>
</circle><path id="path43" d="M 35.67028648125866 14.193645399382872
c 0 37.05374454944684 -9.066341751460396 10.643096838670902 -19.709438590131295 10.643096838670902
S -3.7485906990039357 51.24738994882971 -3.7485906990039357 14.193645399382872
s 9.066341751460396 -10.643096838670902 19.709438590131295 -10.643096838670902
S 35.67028648125866 -22.860099150063967 35.67028648125866 14.193645399382872
z" fill="none" stroke="none"></path>
<circle cx="0" cy="0" r="0.4555636388436997" fill="#b2beff">
  <animateMotion begin="-6.13909328284262s" dur="20s" repeatCount="indefinite">
    <mpath xlink:href="#path43"></mpath>
  </animateMotion>
</circle><path id="path44" d="M 38.95212748671163 37.81932015149217
c 0 18.85107482586718 -4.612497031861118 5.41467042870653 -10.027167460567647 5.41467042870653
S 18.897792565576335 56.67039497735935 18.897792565576335 37.81932015149217
s 4.612497031861118 -5.41467042870653 10.027167460567647 -5.41467042870653
S 38.95212748671163 18.96824532562499 38.95212748671163 37.81932015149217
z" fill="none" stroke="none"></path>
<circle cx="0" cy="0" r="0.35266149928044166" fill="#b2beff">
  <animateMotion begin="-7.824907776387895s" dur="20s" repeatCount="indefinite">
    <mpath xlink:href="#path44"></mpath>
  </animateMotion>
</circle><path id="path45" d="M 32.04919150225229 27.592076778538605
c 0 31.884224002559083 -7.801459064455945 9.158234553926546 -16.959693618382488 9.158234553926546
S -1.870195734512686 59.47630078109769 -1.870195734512686 27.592076778538605
s 7.801459064455945 -9.158234553926546 16.959693618382488 -9.158234553926546
S 32.04919150225229 -4.2921472240204785 32.04919150225229 27.592076778538605
z" fill="none" stroke="none"></path>
<circle cx="0" cy="0" r="0.2626578769873723" fill="#566fff">
  <animateMotion begin="-12.646225393360604s" dur="20s" repeatCount="indefinite">
    <mpath xlink:href="#path45"></mpath>
  </animateMotion>
</circle><path id="path46" d="M 17.146376042238543 42.288292406985306
c 0 26.052640432723226 -6.374582233538661 7.4832052306758206 -13.857787464214482 7.4832052306758206
S -10.569198886190419 68.34093283970853 -10.569198886190419 42.288292406985306
s 6.374582233538661 -7.4832052306758206 13.857787464214482 -7.4832052306758206
S 17.146376042238543 16.23565197426208 17.146376042238543 42.288292406985306
z" fill="none" stroke="none"></path>
<circle cx="0" cy="0" r="0.27340899759012327" fill="#fefefe">
  <animateMotion begin="-8.698055089363503s" dur="20s" repeatCount="indefinite">
    <mpath xlink:href="#path46"></mpath>
  </animateMotion>
</circle><path id="path47" d="M 56.38360415814762 32.630916226416595
c 0 19.349930778165472 -4.734557530827722 5.557958840536891 -10.292516371364613 5.557958840536891
S 35.798571415418394 51.98084700458207 35.798571415418394 32.630916226416595
s 4.734557530827722 -5.557958840536891 10.292516371364613 -5.557958840536891
S 56.38360415814762 13.280985448251123 56.38360415814762 32.630916226416595
z" fill="none" stroke="none"></path>
<circle cx="0" cy="0" r="0.4754587453958165" fill="#566fff">
  <animateMotion begin="-13.399314603499377s" dur="20s" repeatCount="indefinite">
    <mpath xlink:href="#path47"></mpath>
  </animateMotion>
</circle><path id="path48" d="M 62.774668676425144 30.360405401574063
c 0 26.164632613665287 -6.401984575684058 7.515373197542157 -13.917357773226215 7.515373197542157
S 34.939953129972714 56.525038015239346 34.939953129972714 30.360405401574063
s 6.401984575684058 -7.515373197542157 13.917357773226215 -7.515373197542157
S 62.774668676425144 4.195772787908776 62.774668676425144 30.360405401574063
z" fill="none" stroke="none"></path>
<circle cx="0" cy="0" r="0.4838406965850005" fill="#b2beff">
  <animateMotion begin="-9.334752709253067s" dur="20s" repeatCount="indefinite">
    <mpath xlink:href="#path48"></mpath>
  </animateMotion>
</circle></g>
</svg>