<svg xmlns="http://www.w3.org/2000/svg" xmlns:xlink="http://www.w3.org/1999/xlink" style="margin:auto;background:#181818;display:block;z-index:1;position:relative" width="1920" height="1080" preserveAspectRatio="xMidYMid" viewBox="0 0 1920 1080">
<g transform="translate(960,540) scale(1,1) translate(-960,-540)"><defs>
  <path id="path-6axsxkws32k-1" d="M-35 -35L35 -35L35 35L-35 35Z" fill="none" stroke="inherit" stroke-width="4.800000000000001" transform="scale(0.25)"></path>
  <path id="path-6axsxkws32k-2" d="M0 -37A37 37 0 0 1 0 37A37 37 0 0 1 0 -37" fill="none" stroke="inherit" stroke-width="4.800000000000001" transform="scale(0.25)"></path>
  <path id="path-6axsxkws32k-3" d="M0 -34.641L40 34.641L-40 34.641Z" fill="none" stroke="inherit" stroke-width="4.800000000000001" transform="scale(0.25)"></path>
</defs><path id="path0" d="M 91.13788768265837 702.139507095546
c 0 62.622788767898285 -15.322597251719792 17.987396773758018 -33.30999402547781 17.987396773758018
S 24.51789963170274 764.7622958634444 24.51789963170274 702.139507095546
s 15.322597251719792 -17.987396773758018 33.30999402547781 -17.987396773758018
S 91.13788768265837 639.5167183276477 91.13788768265837 702.139507095546
z" fill="none" stroke="none"></path>
<use xlink:href="#path-6axsxkws32k-1" x="0" y="0" stroke="#566fff">
  <animateMotion begin="-2.5237858109921882s" dur="8.214391833802349s" keyPoints="1;0" keyTimes="0;1" repeatCount="indefinite" calcMode="linear">
    <mpath xlink:href="#path0"></mpath>
  </animateMotion>
</use><path id="path1" d="M 112.01882057267309 542.5735009335199
c 0 33.543523467951026 -8.207457869817803 9.634841847177423 -17.842299716995228 9.634841847177423
S 76.33422113868264 576.1170244014709 76.33422113868264 542.5735009335199
s 8.207457869817803 -9.634841847177423 17.842299716995228 -9.634841847177423
S 112.01882057267309 509.02997746556883 112.01882057267309 542.5735009335199
z" fill="none" stroke="none"></path>
<use xlink:href="#path-6axsxkws32k-1" x="0" y="0" stroke="#ffffff">
  <animateMotion begin="-1.367931931961206s" dur="10.124379022198564s" keyPoints="1;0" keyTimes="0;1" repeatCount="indefinite" calcMode="linear">
    <mpath xlink:href="#path1"></mpath>
  </animateMotion>
</use><path id="path2" d="M 161.10459330427764 935.083356016745
c 0 55.92075082481522 -13.682736903944148 16.062343322021395 -29.74508022596554 16.062343322021395
S 101.61443285234655 991.0041068415602 101.61443285234655 935.083356016745
s 13.682736903944148 -16.062343322021395 29.74508022596554 -16.062343322021395
S 161.10459330427764 879.1626051919299 161.10459330427764 935.083356016745
z" fill="none" stroke="none"></path>
<use xlink:href="#path-6axsxkws32k-1" x="0" y="0" stroke="#566fff">
  <animateMotion begin="-0.19461896437885684s" dur="7.685116676112446s" keyPoints="0;1" keyTimes="0;1" repeatCount="indefinite" calcMode="linear">
    <mpath xlink:href="#path2"></mpath>
  </animateMotion>
</use><path id="path3" d="M 178.65506548534853 802.8192211550605
c 0 59.89018127016562 -14.65398052355116 17.202498875473104 -31.856479399024266 17.202498875473104
S 114.9421066873 862.7094024252261 114.9421066873 802.8192211550605
s 14.65398052355116 -17.202498875473104 31.856479399024266 -17.202498875473104
S 178.65506548534853 742.9290398848949 178.65506548534853 802.8192211550605
z" fill="none" stroke="none"></path>
<use xlink:href="#path-6axsxkws32k-1" x="0" y="0" stroke="#566fff">
  <animateMotion begin="-2.188130010476394s" dur="9.693100841072662s" keyPoints="1;0" keyTimes="0;1" repeatCount="indefinite" calcMode="linear">
    <mpath xlink:href="#path3"></mpath>
  </animateMotion>
</use><path id="path4" d="M 232.79491342124982 537.8392880320332
c 0 62.715646651794195 -15.34531779777943 18.014068719132375 -33.359386516911805 18.014068719132375
S 166.07614038742622 600.5549346838274 166.07614038742622 537.8392880320332
s 15.34531779777943 -18.014068719132375 33.359386516911805 -18.014068719132375
S 232.79491342124982 475.123641380239 232.79491342124982 537.8392880320332
z" fill="none" stroke="none"></path>
<use xlink:href="#path-6axsxkws32k-1" x="0" y="0" stroke="#566fff">
  <animateMotion begin="-2.0196032871045837s" dur="7.030753544834802s" keyPoints="0;1" keyTimes="0;1" repeatCount="indefinite" calcMode="linear">
    <mpath xlink:href="#path4"></mpath>
  </animateMotion>
</use><path id="path5" d="M 234.84355616909863 651.0850541528569
c 0 32.993373029068 -8.072846592218765 9.47681991260464 -17.549666504823406 9.47681991260464
S 199.7442231594518 684.0784271819249 199.7442231594518 651.0850541528569
s 8.072846592218765 -9.47681991260464 17.549666504823406 -9.47681991260464
S 234.84355616909863 618.0916811237888 234.84355616909863 651.0850541528569
z" fill="none" stroke="none"></path>
<use xlink:href="#path-6axsxkws32k-3" x="0" y="0" stroke="#ffffff">
  <animateMotion begin="-0.5286118236548316s" dur="5.963007988388908s" keyPoints="0;1" keyTimes="0;1" repeatCount="indefinite" calcMode="linear">
    <mpath xlink:href="#path5"></mpath>
  </animateMotion>
</use><path id="path6" d="M 287.5636515939289 588.1973986476504
c 0 56.7072573905127 -13.875179999806297 16.28825478238131 -30.163434782187608 16.28825478238131
S 227.2367820295537 644.9046560381631 227.2367820295537 588.1973986476504
s 13.875179999806297 -16.28825478238131 30.163434782187608 -16.28825478238131
S 287.5636515939289 531.4901412571377 287.5636515939289 588.1973986476504
z" fill="none" stroke="none"></path>
<use xlink:href="#path-6axsxkws32k-3" x="0" y="0" stroke="#ffffff">
  <animateMotion begin="-0.33986024865899983s" dur="9.86881922438886s" keyPoints="0;1" keyTimes="0;1" repeatCount="indefinite" calcMode="linear">
    <mpath xlink:href="#path6"></mpath>
  </animateMotion>
</use><path id="path7" d="M 301.220924380532 716.5709344566351
c 0 21.051603576184714 -5.150924279279238 6.046737197414759 -11.197661476693996 6.046737197414759
S 278.82560142714397 737.6225380328198 278.82560142714397 716.5709344566351
s 5.150924279279238 -6.046737197414759 11.197661476693996 -6.046737197414759
S 301.220924380532 695.5193308804504 301.220924380532 716.5709344566351
z" fill="none" stroke="none"></path>
<use xlink:href="#path-6axsxkws32k-2" x="0" y="0" stroke="#566fff">
  <animateMotion begin="-1.5678716879602634s" dur="7.8933904711275265s" keyPoints="0;1" keyTimes="0;1" repeatCount="indefinite" calcMode="linear">
    <mpath xlink:href="#path7"></mpath>
  </animateMotion>
</use><path id="path8" d="M 370.93647381207575 844.7736581076293
c 0 63.287362423952096 -15.485205699477639 18.17828495156071 -33.663490651038344 18.17828495156071
S 303.6094925099991 908.0610205315814 303.6094925099991 844.7736581076293
s 15.485205699477639 -18.17828495156071 33.663490651038344 -18.17828495156071
S 370.93647381207575 781.4862956836772 370.93647381207575 844.7736581076293
z" fill="none" stroke="none"></path>
<use xlink:href="#path-6axsxkws32k-3" x="0" y="0" stroke="#566fff">
  <animateMotion begin="-1.6133541214132758s" dur="9.927047033981264s" keyPoints="0;1" keyTimes="0;1" repeatCount="indefinite" calcMode="linear">
    <mpath xlink:href="#path8"></mpath>
  </animateMotion>
</use><path id="path9" d="M 380.1850163957912 35.22296086324495
c 0 38.86877048572256 -9.510443842251263 11.164434075686268 -20.67487791793753 11.164434075686268
S 338.83526055991615 74.0917313489675 338.83526055991615 35.22296086324495
s 9.510443842251263 -11.164434075686268 20.67487791793753 -11.164434075686268
S 380.1850163957912 -3.645809622477607 380.1850163957912 35.22296086324495
z" fill="none" stroke="none"></path>
<use xlink:href="#path-6axsxkws32k-2" x="0" y="0" stroke="#566fff">
  <animateMotion begin="-2.5442383202775036s" dur="9.174033566125415s" keyPoints="1;0" keyTimes="0;1" repeatCount="indefinite" calcMode="linear">
    <mpath xlink:href="#path9"></mpath>
  </animateMotion>
</use><path id="path10" d="M 424.1465307135873 512.9790860763896
c 0 28.129363851439614 -6.882716687054373 8.079710893498612 -14.962427580552987 8.079710893498612
S 394.2216755524814 541.1084499278293 394.2216755524814 512.9790860763896
s 6.882716687054373 -8.079710893498612 14.962427580552987 -8.079710893498612
S 424.1465307135873 484.84972222495 424.1465307135873 512.9790860763896
z" fill="none" stroke="none"></path>
<use xlink:href="#path-6axsxkws32k-2" x="0" y="0" stroke="#566fff">
  <animateMotion begin="-2.163014072280964s" dur="8.177949433603208s" keyPoints="0;1" keyTimes="0;1" repeatCount="indefinite" calcMode="linear">
    <mpath xlink:href="#path10"></mpath>
  </animateMotion>
</use><path id="path11" d="M 450.6181715836929 483.61384954451756
c 0 25.333968290787833 -6.198736922214043 7.276778126077357 -13.475515048291399 7.276778126077357
S 423.6671414871101 508.9478178353054 423.6671414871101 483.61384954451756
s 6.198736922214043 -7.276778126077357 13.475515048291399 -7.276778126077357
S 450.6181715836929 458.27988125372974 450.6181715836929 483.61384954451756
z" fill="none" stroke="none"></path>
<use xlink:href="#path-6axsxkws32k-1" x="0" y="0" stroke="#566fff">
  <animateMotion begin="-0.10650615957957518s" dur="8.886489824562913s" keyPoints="0;1" keyTimes="0;1" repeatCount="indefinite" calcMode="linear">
    <mpath xlink:href="#path11"></mpath>
  </animateMotion>
</use><path id="path12" d="M 494.0786948928972 70.48840435270574
c 0 49.82891895544068 -12.192182297607824 14.31256182762658 -26.504744125234403 14.31256182762658
S 441.06920664242836 120.31732330814643 441.06920664242836 70.48840435270574
s 12.192182297607824 -14.31256182762658 26.504744125234403 -14.31256182762658
S 494.0786948928972 20.659485397265065 494.0786948928972 70.48840435270574
z" fill="none" stroke="none"></path>
<use xlink:href="#path-6axsxkws32k-3" x="0" y="0" stroke="#566fff">
  <animateMotion begin="-1.800102192557565s" dur="7.185214650758738s" keyPoints="0;1" keyTimes="0;1" repeatCount="indefinite" calcMode="linear">
    <mpath xlink:href="#path12"></mpath>
  </animateMotion>
</use><path id="path13" d="M 563.1985972848817 15.817331783673948
c 0 65.15592459653642 -15.942407082131252 18.71499961815408 -34.657406700285335 18.71499961815408
S 493.88378388431096 80.97325638021037 493.88378388431096 15.817331783673948
s 15.942407082131252 -18.71499961815408 34.657406700285335 -18.71499961815408
S 563.1985972848817 -49.33859281286247 563.1985972848817 15.817331783673948
z" fill="none" stroke="none"></path>
<use xlink:href="#path-6axsxkws32k-1" x="0" y="0" stroke="#ffffff">
  <animateMotion begin="-2.139760542805824s" dur="8.777058819333622s" keyPoints="0;1" keyTimes="0;1" repeatCount="indefinite" calcMode="linear">
    <mpath xlink:href="#path13"></mpath>
  </animateMotion>
</use><path id="path14" d="M 565.1624083119809 1016.0641170789233
c 0 48.84172683252639 -11.950635288809647 14.02900664338524 -25.979641932194887 14.02900664338524
S 513.2031244475911 1064.9058439114497 513.2031244475911 1016.0641170789233
s 11.950635288809647 -14.02900664338524 25.979641932194887 -14.02900664338524
S 565.1624083119809 967.2223902463969 565.1624083119809 1016.0641170789233
z" fill="none" stroke="none"></path>
<use xlink:href="#path-6axsxkws32k-2" x="0" y="0" stroke="#ffffff">
  <animateMotion begin="-0.7685160543809936s" dur="7.769529376051442s" keyPoints="1;0" keyTimes="0;1" repeatCount="indefinite" calcMode="linear">
    <mpath xlink:href="#path14"></mpath>
  </animateMotion>
</use><path id="path15" d="M 614.9068037973371 534.9653220460075
c 0 45.98226269879902 -11.250979170982738 13.207671200718869 -24.45865037170161 13.207671200718869
S 565.9895030539338 580.9475847448065 565.9895030539338 534.9653220460075
s 11.250979170982738 -13.207671200718869 24.45865037170161 -13.207671200718869
S 614.9068037973371 488.9830593472085 614.9068037973371 534.9653220460075
z" fill="none" stroke="none"></path>
<use xlink:href="#path-6axsxkws32k-1" x="0" y="0" stroke="#ffffff">
  <animateMotion begin="-0.7752926317807803s" dur="7.682786359632647s" keyPoints="1;0" keyTimes="0;1" repeatCount="indefinite" calcMode="linear">
    <mpath xlink:href="#path15"></mpath>
  </animateMotion>
</use><path id="path16" d="M 651.6557638432865 182.46134341568592
c 0 19.570599794488864 -4.788551013545147 5.621342494161695 -10.409893507706842 5.621342494161695
S 630.8359768278727 202.03194321017477 630.8359768278727 182.46134341568592
s 4.788551013545147 -5.621342494161695 10.409893507706842 -5.621342494161695
S 651.6557638432865 162.89074362119706 651.6557638432865 182.46134341568592
z" fill="none" stroke="none"></path>
<use xlink:href="#path-6axsxkws32k-2" x="0" y="0" stroke="#566fff">
  <animateMotion begin="-0.14248627367523395s" dur="8.494221997359302s" keyPoints="0;1" keyTimes="0;1" repeatCount="indefinite" calcMode="linear">
    <mpath xlink:href="#path16"></mpath>
  </animateMotion>
</use><path id="path17" d="M 674.5974226265632 338.4000204695117
c 0 38.47790344819564 -9.41480616285638 11.05216375639662 -20.466969919253 11.05216375639662
S 633.6634827880573 376.87792391770734 633.6634827880573 338.4000204695117
s 9.41480616285638 -11.05216375639662 20.466969919253 -11.05216375639662
S 674.5974226265632 299.922117021316 674.5974226265632 338.4000204695117
z" fill="none" stroke="none"></path>
<use xlink:href="#path-6axsxkws32k-3" x="0" y="0" stroke="#566fff">
  <animateMotion begin="-1.1597060958598715s" dur="6.430814702587592s" keyPoints="1;0" keyTimes="0;1" repeatCount="indefinite" calcMode="linear">
    <mpath xlink:href="#path17"></mpath>
  </animateMotion>
</use><path id="path18" d="M 749.3384491777663 416.6580341284634
c 0 62.92177737140204 -15.395754037683476 18.073276479019736 -33.469030516703214 18.073276479019736
S 682.4003881443598 479.5798114998654 682.4003881443598 416.6580341284634
s 15.395754037683476 -18.073276479019736 33.469030516703214 -18.073276479019736
S 749.3384491777663 353.73625675706137 749.3384491777663 416.6580341284634
z" fill="none" stroke="none"></path>
<use xlink:href="#path-6axsxkws32k-1" x="0" y="0" stroke="#566fff">
  <animateMotion begin="-0.6302851270307508s" dur="8.124113251787005s" keyPoints="1;0" keyTimes="0;1" repeatCount="indefinite" calcMode="linear">
    <mpath xlink:href="#path18"></mpath>
  </animateMotion>
</use><path id="path19" d="M 769.2900446286036 716.6441149297727
c 0 53.58690912690811 -13.111690531051982 15.39198453645233 -28.50367506750431 15.39198453645233
S 712.2826944935949 770.2310240566809 712.2826944935949 716.6441149297727
s 13.111690531051982 -15.39198453645233 28.50367506750431 -15.39198453645233
S 769.2900446286036 663.0572058028646 769.2900446286036 716.6441149297727
z" fill="none" stroke="none"></path>
<use xlink:href="#path-6axsxkws32k-2" x="0" y="0" stroke="#566fff">
  <animateMotion begin="-1.5465993007473309s" dur="8.651695654807734s" keyPoints="0;1" keyTimes="0;1" repeatCount="indefinite" calcMode="linear">
    <mpath xlink:href="#path19"></mpath>
  </animateMotion>
</use><path id="path20" d="M 803.917156428789 791.4416881203374
c 0 51.35575450064701 -12.565769718243414 14.751120973590098 -27.316890691833514 14.751120973590098
S 749.283375045122 842.7974426209844 749.283375045122 791.4416881203374
s 12.565769718243414 -14.751120973590098 27.316890691833514 -14.751120973590098
S 803.917156428789 740.0859336196904 803.917156428789 791.4416881203374
z" fill="none" stroke="none"></path>
<use xlink:href="#path-6axsxkws32k-2" x="0" y="0" stroke="#566fff">
  <animateMotion begin="-1.27877253205633s" dur="6.832411495066164s" keyPoints="0;1" keyTimes="0;1" repeatCount="indefinite" calcMode="linear">
    <mpath xlink:href="#path20"></mpath>
  </animateMotion>
</use><path id="path21" d="M 852.073857108297 390.00143070649256
c 0 60.003349677259756 -14.681670665712492 17.23500469453206 -31.916675360244547 17.23500469453206
S 788.240506387808 450.0047803837523 788.240506387808 390.00143070649256
s 14.681670665712492 -17.23500469453206 31.916675360244547 -17.23500469453206
S 852.073857108297 329.9980810292328 852.073857108297 390.00143070649256
z" fill="none" stroke="none"></path>
<use xlink:href="#path-6axsxkws32k-3" x="0" y="0" stroke="#566fff">
  <animateMotion begin="-0.6848027499955722s" dur="9.484363636129482s" keyPoints="1;0" keyTimes="0;1" repeatCount="indefinite" calcMode="linear">
    <mpath xlink:href="#path21"></mpath>
  </animateMotion>
</use><path id="path22" d="M 863.6213621063353 371.65130540168025
c 0 36.510325413026194 -8.933377494676622 10.487008363316036 -19.420385857992656 10.487008363316036
S 824.78059039035 408.1616308147064 824.78059039035 371.65130540168025
s 8.933377494676622 -10.487008363316036 19.420385857992656 -10.487008363316036
S 863.6213621063353 335.14097998865407 863.6213621063353 371.65130540168025
z" fill="none" stroke="none"></path>
<use xlink:href="#path-6axsxkws32k-3" x="0" y="0" stroke="#566fff">
  <animateMotion begin="-0.7586912962331676s" dur="6.517329904455001s" keyPoints="1;0" keyTimes="0;1" repeatCount="indefinite" calcMode="linear">
    <mpath xlink:href="#path22"></mpath>
  </animateMotion>
</use><path id="path23" d="M 897.5031417339168 606.2619048026942
c 0 44.94070511278739 -10.996129974405424 12.908500404736804 -23.90463037914223 12.908500404736804
S 849.6938809756324 651.2026099154816 849.6938809756324 606.2619048026942
s 10.996129974405424 -12.908500404736804 23.90463037914223 -12.908500404736804
S 897.5031417339168 561.3211996899067 897.5031417339168 606.2619048026942
z" fill="none" stroke="none"></path>
<use xlink:href="#path-6axsxkws32k-2" x="0" y="0" stroke="#566fff">
  <animateMotion begin="-1.0851592455453531s" dur="8.930201745471756s" keyPoints="0;1" keyTimes="0;1" repeatCount="indefinite" calcMode="linear">
    <mpath xlink:href="#path23"></mpath>
  </animateMotion>
</use><path id="path24" d="M 950.579583382277 1010.7290919822473
c 0 51.24914033359527 -12.539683273113734 14.720497755394387 -27.26018102850812 14.720497755394387
S 896.0592213252608 1061.9782323158424 896.0592213252608 1010.7290919822473
s 12.539683273113734 -14.720497755394387 27.26018102850812 -14.720497755394387
S 950.579583382277 959.479951648652 950.579583382277 1010.7290919822473
z" fill="none" stroke="none"></path>
<use xlink:href="#path-6axsxkws32k-2" x="0" y="0" stroke="#566fff">
  <animateMotion begin="-0.19719782666127236s" dur="5.428965072075129s" keyPoints="1;0" keyTimes="0;1" repeatCount="indefinite" calcMode="linear">
    <mpath xlink:href="#path24"></mpath>
  </animateMotion>
</use><path id="path25" d="M 977.3383888605637 487.528512770313
c 0 20.512060183758944 -5.018908342834634 5.891761967675441 -10.910670310510076 5.891761967675441
S 955.5170482395434 508.04057295407193 955.5170482395434 487.528512770313
s 5.018908342834634 -5.891761967675441 10.910670310510076 -5.891761967675441
S 977.3383888605637 467.01645258655407 977.3383888605637 487.528512770313
z" fill="none" stroke="none"></path>
<use xlink:href="#path-6axsxkws32k-3" x="0" y="0" stroke="#566fff">
  <animateMotion begin="-1.1546976517401633s" dur="5.395917490125424s" keyPoints="0;1" keyTimes="0;1" repeatCount="indefinite" calcMode="linear">
    <mpath xlink:href="#path25"></mpath>
  </animateMotion>
</use><path id="path26" d="M 999.030249289997 274.4185965346399
c 0 33.77508706855005 -8.264117048687778 9.701354796285653 -17.96547184497343 9.701354796285653
S 963.0993056000501 308.1936836031899 963.0993056000501 274.4185965346399
s 8.264117048687778 -9.701354796285653 17.96547184497343 -9.701354796285653
S 999.030249289997 240.64350946608985 999.030249289997 274.4185965346399
z" fill="none" stroke="none"></path>
<use xlink:href="#path-6axsxkws32k-1" x="0" y="0" stroke="#566fff">
  <animateMotion begin="-0.006561426156448004s" dur="8.379202438192642s" keyPoints="1;0" keyTimes="0;1" repeatCount="indefinite" calcMode="linear">
    <mpath xlink:href="#path26"></mpath>
  </animateMotion>
</use><path id="path27" d="M 1063.3731079282 582.2261187868951
c 0 27.61273519683053 -6.756307548160661 7.931317556536429 -14.68762510469709 7.931317556536429
S 1033.9978577188056 609.8388539837256 1033.9978577188056 582.2261187868951
s 6.756307548160661 -7.931317556536429 14.68762510469709 -7.931317556536429
S 1063.3731079282 554.6133835900646 1063.3731079282 582.2261187868951
z" fill="none" stroke="none"></path>
<use xlink:href="#path-6axsxkws32k-1" x="0" y="0" stroke="#566fff">
  <animateMotion begin="-2.5293732889928835s" dur="8.940117258332121s" keyPoints="0;1" keyTimes="0;1" repeatCount="indefinite" calcMode="linear">
    <mpath xlink:href="#path27"></mpath>
  </animateMotion>
</use><path id="path28" d="M 1082.153971246302 910.1229350287829
c 0 43.01407309791404 -10.524720013319392 12.355106102592332 -22.879826115911722 12.355106102592332
S 1036.3943190144785 953.137008126697 1036.3943190144785 910.1229350287829
s 10.524720013319392 -12.355106102592332 22.879826115911722 -12.355106102592332
S 1082.153971246302 867.1088619308688 1082.153971246302 910.1229350287829
z" fill="none" stroke="none"></path>
<use xlink:href="#path-6axsxkws32k-1" x="0" y="0" stroke="#566fff">
  <animateMotion begin="-1.137761267476255s" dur="9.100786990431503s" keyPoints="0;1" keyTimes="0;1" repeatCount="indefinite" calcMode="linear">
    <mpath xlink:href="#path28"></mpath>
  </animateMotion>
</use><path id="path29" d="M 1147.735166368168 489.1268341154355
c 0 45.48550643650442 -11.129432425953208 13.064985891336377 -24.194418317289585 13.064985891336377
S 1099.3463297335888 534.61234055194 1099.3463297335888 489.1268341154355
s 11.129432425953208 -13.064985891336377 24.194418317289585 -13.064985891336377
S 1147.735166368168 443.6413276789311 1147.735166368168 489.1268341154355
z" fill="none" stroke="none"></path>
<use xlink:href="#path-6axsxkws32k-3" x="0" y="0" stroke="#566fff">
  <animateMotion begin="-2.515436587062173s" dur="6.886292343722541s" keyPoints="0;1" keyTimes="0;1" repeatCount="indefinite" calcMode="linear">
    <mpath xlink:href="#path29"></mpath>
  </animateMotion>
</use><path id="path30" d="M 1170.3469164232183 865.3305193652457
c 0 60.384914312683 -14.775032225443711 17.344603047260012 -32.11963527270372 17.344603047260012
S 1106.1076458778107 925.7154336779287 1106.1076458778107 865.3305193652457
s 14.775032225443711 -17.344603047260012 32.11963527270372 -17.344603047260012
S 1170.3469164232183 804.9456050525627 1170.3469164232183 865.3305193652457
z" fill="none" stroke="none"></path>
<use xlink:href="#path-6axsxkws32k-1" x="0" y="0" stroke="#566fff">
  <animateMotion begin="-0.5321440875344116s" dur="9.747058963686943s" keyPoints="1;0" keyTimes="0;1" repeatCount="indefinite" calcMode="linear">
    <mpath xlink:href="#path30"></mpath>
  </animateMotion>
</use><path id="path31" d="M 1189.7030376959656 902.7914276894172
c 0 35.228054238447946 -8.619630292386198 10.118696430192495 -18.738326722578694 10.118696430192495
S 1152.2263842508082 938.0194819278652 1152.2263842508082 902.7914276894172
s 8.619630292386198 -10.118696430192495 18.738326722578694 -10.118696430192495
S 1189.7030376959656 867.5633734509693 1189.7030376959656 902.7914276894172
z" fill="none" stroke="none"></path>
<use xlink:href="#path-6axsxkws32k-2" x="0" y="0" stroke="#ffffff">
  <animateMotion begin="-1.2798629457129715s" dur="8.640788294197217s" keyPoints="0;1" keyTimes="0;1" repeatCount="indefinite" calcMode="linear">
    <mpath xlink:href="#path31"></mpath>
  </animateMotion>
</use><path id="path32" d="M 1259.710665173805 231.6831367264927
c 0 57.64973075064208 -14.105785183667741 16.55896521560996 -30.6647503992777 16.55896521560996
S 1198.3811643752497 289.33286747713476 1198.3811643752497 231.6831367264927
s 14.105785183667741 -16.55896521560996 30.6647503992777 -16.55896521560996
S 1259.710665173805 174.03340597585063 1259.710665173805 231.6831367264927
z" fill="none" stroke="none"></path>
<use xlink:href="#path-6axsxkws32k-1" x="0" y="0" stroke="#ffffff">
  <animateMotion begin="-2.5092588498261508s" dur="8.543744004314556s" keyPoints="0;1" keyTimes="0;1" repeatCount="indefinite" calcMode="linear">
    <mpath xlink:href="#path32"></mpath>
  </animateMotion>
</use><path id="path33" d="M 1262.5931739708085 156.87487461391223
c 0 37.34590244271092 -9.137827193429267 10.727014531416968 -19.864841724846233 10.727014531416968
S 1222.863490521116 194.22077705662315 1222.863490521116 156.87487461391223
s 9.137827193429267 -10.727014531416968 19.864841724846233 -10.727014531416968
S 1262.5931739708085 119.5289721712013 1262.5931739708085 156.87487461391223
z" fill="none" stroke="none"></path>
<use xlink:href="#path-6axsxkws32k-1" x="0" y="0" stroke="#ffffff">
  <animateMotion begin="-0.15886307382939055s" dur="9.124625425593878s" keyPoints="1;0" keyTimes="0;1" repeatCount="indefinite" calcMode="linear">
    <mpath xlink:href="#path33"></mpath>
  </animateMotion>
</use><path id="path34" d="M 1312.4821614474408 1046.2700112554332
c 0 29.772771749644168 -7.284827130232083 8.55175358766375 -15.836580717895835 8.55175358766375
S 1280.809000011649 1076.0427830050774 1280.809000011649 1046.2700112554332
s 7.284827130232083 -8.55175358766375 15.836580717895835 -8.55175358766375
S 1312.4821614474408 1016.497239505789 1312.4821614474408 1046.2700112554332
z" fill="none" stroke="none"></path>
<use xlink:href="#path-6axsxkws32k-1" x="0" y="0" stroke="#566fff">
  <animateMotion begin="-2.3722818154612897s" dur="7.170051717475435s" keyPoints="1;0" keyTimes="0;1" repeatCount="indefinite" calcMode="linear">
    <mpath xlink:href="#path34"></mpath>
  </animateMotion>
</use><path id="path35" d="M 1346.8561771046989 586.065169275051
c 0 63.140805438495285 -15.449346011546718 18.13618879616354 -33.58553480771026 18.13618879616354
S 1279.6851074892784 649.2059747135462 1279.6851074892784 586.065169275051
s 15.449346011546718 -18.13618879616354 33.58553480771026 -18.13618879616354
S 1346.8561771046989 522.9243638365557 1346.8561771046989 586.065169275051
z" fill="none" stroke="none"></path>
<use xlink:href="#path-6axsxkws32k-3" x="0" y="0" stroke="#ffffff">
  <animateMotion begin="-0.33628807215168843s" dur="9.630602478561478s" keyPoints="1;0" keyTimes="0;1" repeatCount="indefinite" calcMode="linear">
    <mpath xlink:href="#path35"></mpath>
  </animateMotion>
</use><path id="path36" d="M 1385.3097115708815 734.458991325959
c 0 29.069383850421957 -7.112721580422393 8.349716637887157 -15.46243821830955 8.349716637887157
S 1354.3848351342626 763.5283751763809 1354.3848351342626 734.458991325959
s 7.112721580422393 -8.349716637887157 15.46243821830955 -8.349716637887157
S 1385.3097115708815 705.3896074755371 1385.3097115708815 734.458991325959
z" fill="none" stroke="none"></path>
<use xlink:href="#path-6axsxkws32k-2" x="0" y="0" stroke="#566fff">
  <animateMotion begin="-0.07892492304815378s" dur="5.900838378483875s" keyPoints="0;1" keyTimes="0;1" repeatCount="indefinite" calcMode="linear">
    <mpath xlink:href="#path36"></mpath>
  </animateMotion>
</use><path id="path37" d="M 1436.9513841274145 353.74692433755257
c 0 59.223188904913464 -14.490780263968187 17.010915962049612 -31.5016962260178 17.010915962049612
S 1373.9479916753787 412.970113242466 1373.9479916753787 353.74692433755257
s 14.490780263968187 -17.010915962049612 31.5016962260178 -17.010915962049612
S 1436.9513841274145 294.5237354326391 1436.9513841274145 353.74692433755257
z" fill="none" stroke="none"></path>
<use xlink:href="#path-6axsxkws32k-2" x="0" y="0" stroke="#566fff">
  <animateMotion begin="-1.6861777985775137s" dur="6.953011182895398s" keyPoints="1;0" keyTimes="0;1" repeatCount="indefinite" calcMode="linear">
    <mpath xlink:href="#path37"></mpath>
  </animateMotion>
</use><path id="path38" d="M 1459.6310836989146 811.500319000401
c 0 46.47029793765072 -11.37039204857411 13.347851535282654 -24.718243583856765 13.347851535282654
S 1410.1945965312011 857.9706169380516 1410.1945965312011 811.500319000401
s 11.37039204857411 -13.347851535282654 24.718243583856765 -13.347851535282654
S 1459.6310836989146 765.0300210627503 1459.6310836989146 811.500319000401
z" fill="none" stroke="none"></path>
<use xlink:href="#path-6axsxkws32k-3" x="0" y="0" stroke="#ffffff">
  <animateMotion begin="-0.430638582137948s" dur="8.50701805363921s" keyPoints="0;1" keyTimes="0;1" repeatCount="indefinite" calcMode="linear">
    <mpath xlink:href="#path38"></mpath>
  </animateMotion>
</use><path id="path39" d="M 1499.662413174469 686.346714697793
c 0 52.29134864525338 -12.794691689796037 15.019855461934482 -27.81454715173052 15.019855461934482
S 1444.033318871008 738.6380633430464 1444.033318871008 686.346714697793
s 12.794691689796037 -15.019855461934482 27.81454715173052 -15.019855461934482
S 1499.662413174469 634.0553660525396 1499.662413174469 686.346714697793
z" fill="none" stroke="none"></path>
<use xlink:href="#path-6axsxkws32k-3" x="0" y="0" stroke="#ffffff">
  <animateMotion begin="-1.222494944372566s" dur="6.841920065629757s" keyPoints="1;0" keyTimes="0;1" repeatCount="indefinite" calcMode="linear">
    <mpath xlink:href="#path39"></mpath>
  </animateMotion>
</use><path id="path40" d="M 1545.3746415935645 824.167819564585
c 0 64.17689265130701 -15.702856712553842 18.43378831473712 -34.13664502729097 18.43378831473712
S 1477.1013515389825 888.3447122158921 1477.1013515389825 824.167819564585
s 15.702856712553842 -18.43378831473712 34.13664502729097 -18.43378831473712
S 1545.3746415935645 759.9909269132779 1545.3746415935645 824.167819564585
z" fill="none" stroke="none"></path>
<use xlink:href="#path-6axsxkws32k-3" x="0" y="0" stroke="#566fff">
  <animateMotion begin="-2.3235516055431362s" dur="5.961576671409042s" keyPoints="0;1" keyTimes="0;1" repeatCount="indefinite" calcMode="linear">
    <mpath xlink:href="#path40"></mpath>
  </animateMotion>
</use><path id="path41" d="M 1581.715693601066 429.2864178087662
c 0 40.370217980098076 -9.87781929300272 11.595700909177106 -21.473520202179827 11.595700909177106
S 1538.7686531967065 469.65663578886426 1538.7686531967065 429.2864178087662
s 9.87781929300272 -11.595700909177106 21.473520202179827 -11.595700909177106
S 1581.715693601066 388.91619982866814 1581.715693601066 429.2864178087662
z" fill="none" stroke="none"></path>
<use xlink:href="#path-6axsxkws32k-1" x="0" y="0" stroke="#566fff">
  <animateMotion begin="-1.3768334579075805s" dur="6.486620176623766s" keyPoints="1;0" keyTimes="0;1" repeatCount="indefinite" calcMode="linear">
    <mpath xlink:href="#path41"></mpath>
  </animateMotion>
</use><path id="path42" d="M 1605.0035361426444 423.614529014579
c 0 57.59374695840017 -14.09208702173621 16.542884764646857 -30.63497178638307 16.542884764646857
S 1543.733592569878 481.20827597297915 1543.733592569878 423.614529014579
s 14.09208702173621 -16.542884764646857 30.63497178638307 -16.542884764646857
S 1605.0035361426444 366.0207820561788 1605.0035361426444 423.614529014579
z" fill="none" stroke="none"></path>
<use xlink:href="#path-6axsxkws32k-3" x="0" y="0" stroke="#ffffff">
  <animateMotion begin="-2.504733529589174s" dur="10.385848026090116s" keyPoints="0;1" keyTimes="0;1" repeatCount="indefinite" calcMode="linear">
    <mpath xlink:href="#path42"></mpath>
  </animateMotion>
</use><path id="path43" d="M 1652.8278392791515 683.6550421226543
c 0 36.642375188930956 -8.965687546227786 10.524937554267401 -19.490625100495187 10.524937554267401
S 1613.846589078161 720.2974173115853 1613.846589078161 683.6550421226543
s 8.965687546227786 -10.524937554267401 19.490625100495187 -10.524937554267401
S 1652.8278392791515 647.0126669337234 1652.8278392791515 683.6550421226543
z" fill="none" stroke="none"></path>
<use xlink:href="#path-6axsxkws32k-3" x="0" y="0" stroke="#566fff">
  <animateMotion begin="-0.2031579538481453s" dur="9.68154146609109s" keyPoints="0;1" keyTimes="0;1" repeatCount="indefinite" calcMode="linear">
    <mpath xlink:href="#path43"></mpath>
  </animateMotion>
</use><path id="path44" d="M 1673.765378932847 1055.5963016271514
c 0 35.91414914587209 -8.787504578245295 10.315766244027088 -19.103270822272385 10.315766244027088
S 1635.5588372883021 1091.5104507730234 1635.5588372883021 1055.5963016271514
s 8.787504578245295 -10.315766244027088 19.103270822272385 -10.315766244027088
S 1673.765378932847 1019.6821524812793 1673.765378932847 1055.5963016271514
z" fill="none" stroke="none"></path>
<use xlink:href="#path-6axsxkws32k-1" x="0" y="0" stroke="#566fff">
  <animateMotion begin="-0.17413396799357966s" dur="9.605000986491925s" keyPoints="0;1" keyTimes="0;1" repeatCount="indefinite" calcMode="linear">
    <mpath xlink:href="#path44"></mpath>
  </animateMotion>
</use><path id="path45" d="M 1706.497563173585 346.2102773596079
c 0 54.678450359902385 -13.378769768912283 15.70551233741877 -29.084282106331052 15.70551233741877
S 1648.3289989609227 400.8887277195103 1648.3289989609227 346.2102773596079
s 13.378769768912283 -15.70551233741877 29.084282106331052 -15.70551233741877
S 1706.497563173585 291.5318269997055 1706.497563173585 346.2102773596079
z" fill="none" stroke="none"></path>
<use xlink:href="#path-6axsxkws32k-2" x="0" y="0" stroke="#ffffff">
  <animateMotion begin="-0.6638749675340989s" dur="7.5668276367884655s" keyPoints="0;1" keyTimes="0;1" repeatCount="indefinite" calcMode="linear">
    <mpath xlink:href="#path45"></mpath>
  </animateMotion>
</use><path id="path46" d="M 1752.518965486835 59.98422849360332
c 0 64.1495998769375 -15.696178693293216 18.425948900822473 -34.12212759411569 18.425948900822473
S 1684.2747102986036 124.13382837054081 1684.2747102986036 59.98422849360332
s 15.696178693293216 -18.425948900822473 34.12212759411569 -18.425948900822473
S 1752.518965486835 -4.1653713833341826 1752.518965486835 59.98422849360332
z" fill="none" stroke="none"></path>
<use xlink:href="#path-6axsxkws32k-1" x="0" y="0" stroke="#566fff">
  <animateMotion begin="-0.9068612910064526s" dur="10.255001764423325s" keyPoints="0;1" keyTimes="0;1" repeatCount="indefinite" calcMode="linear">
    <mpath xlink:href="#path46"></mpath>
  </animateMotion>
</use><path id="path47" d="M 1789.5074587920863 251.42374347169965
c 0 46.06159506977469 -11.270390283029975 13.230458158339538 -24.500848441369513 13.230458158339538
S 1740.5057619093473 297.48533854147433 1740.5057619093473 251.42374347169965
s 11.270390283029975 -13.230458158339538 24.500848441369513 -13.230458158339538
S 1789.5074587920863 205.36214840192497 1789.5074587920863 251.42374347169965
z" fill="none" stroke="none"></path>
<use xlink:href="#path-6axsxkws32k-2" x="0" y="0" stroke="#ffffff">
  <animateMotion begin="-0.5189602282693009s" dur="9.0434291500041s" keyPoints="1;0" keyTimes="0;1" repeatCount="indefinite" calcMode="linear">
    <mpath xlink:href="#path47"></mpath>
  </animateMotion>
</use><path id="path48" d="M 1832.963338658909 952.8902862095558
c 0 25.6466576378343 -6.275246017767966 7.366593151292831 -13.641839169060797 7.366593151292831
S 1805.6796603207872 978.5369438473901 1805.6796603207872 952.8902862095558
s 6.275246017767966 -7.366593151292831 13.641839169060797 -7.366593151292831
S 1832.963338658909 927.2436285717215 1832.963338658909 952.8902862095558
z" fill="none" stroke="none"></path>
<use xlink:href="#path-6axsxkws32k-2" x="0" y="0" stroke="#566fff">
  <animateMotion begin="-0.1597935525175892s" dur="7.60118271781223s" keyPoints="0;1" keyTimes="0;1" repeatCount="indefinite" calcMode="linear">
    <mpath xlink:href="#path48"></mpath>
  </animateMotion>
</use><path id="path49" d="M 1883.378758495636 770.9618466541665
c 0 41.19758347110998 -10.080259785484355 11.833348443829461 -21.913608229313816 11.833348443829461
S 1839.5515420370082 812.1594301252765 1839.5515420370082 770.9618466541665
s 10.080259785484355 -11.833348443829461 21.913608229313816 -11.833348443829461
S 1883.378758495636 729.7642631830565 1883.378758495636 770.9618466541665
z" fill="none" stroke="none"></path>
<use xlink:href="#path-6axsxkws32k-3" x="0" y="0" stroke="#ffffff">
  <animateMotion begin="-0.23445723578875438s" dur="9.174332193677863s" keyPoints="0;1" keyTimes="0;1" repeatCount="indefinite" calcMode="linear">
    <mpath xlink:href="#path49"></mpath>
  </animateMotion>
</use><path id="path50" d="M 1911.9262396744036 521.8708995458314
c 0 32.99431515746298 -8.073077112996259 9.477090523952132 -17.55016763694839 9.477090523952132
S 1876.825904400507 554.8652147032944 1876.825904400507 521.8708995458314
s 8.073077112996259 -9.477090523952132 17.55016763694839 -9.477090523952132
S 1911.9262396744036 488.8765843883684 1911.9262396744036 521.8708995458314
z" fill="none" stroke="none"></path>
<use xlink:href="#path-6axsxkws32k-3" x="0" y="0" stroke="#ffffff">
  <animateMotion begin="-1.0036581553740433s" dur="6.462256404099657s" keyPoints="1;0" keyTimes="0;1" repeatCount="indefinite" calcMode="linear">
    <mpath xlink:href="#path50"></mpath>
  </animateMotion>
</use></g>
</svg>